<mxfile host="app.diagrams.net" modified="2023-12-18T10:33:35.437Z" agent="Mozilla/5.0 (Windows NT 10.0; Win64; x64) AppleWebKit/537.36 (KHTML, like Gecko) Chrome/118.0.0.0 Safari/537.36 OPR/104.0.0.0 (Edition Yx GX)" etag="870_yq5s2U-tYXK5Diuf" version="22.1.11" type="device">
  <diagram name="Страница 1" id="86V94EqFgmShpXzJ3njb">
    <mxGraphModel dx="735" dy="455" grid="1" gridSize="10" guides="1" tooltips="1" connect="1" arrows="1" fold="1" page="1" pageScale="1" pageWidth="827" pageHeight="1169" math="0" shadow="0">
      <root>
        <mxCell id="0" />
        <mxCell id="1" parent="0" />
        <mxCell id="udrUvMwMZRMJsxwZoKq2-1" value="Bat" style="swimlane;fontStyle=1;align=center;verticalAlign=top;childLayout=stackLayout;horizontal=1;startSize=26;horizontalStack=0;resizeParent=1;resizeParentMax=0;resizeLast=0;collapsible=1;marginBottom=0;whiteSpace=wrap;html=1;" parent="1" vertex="1">
          <mxGeometry x="450" y="240" width="250" height="620" as="geometry" />
        </mxCell>
        <mxCell id="udrUvMwMZRMJsxwZoKq2-2" value="&lt;div style=&quot;border-color: var(--border-color);&quot;&gt;&lt;div style=&quot;border-color: var(--border-color);&quot;&gt;- IdBat: int;&lt;/div&gt;&lt;div style=&quot;border-color: var(--border-color);&quot;&gt;- Name: string;&lt;br style=&quot;border-color: var(--border-color);&quot;&gt;&lt;/div&gt;&lt;div style=&quot;border-color: var(--border-color);&quot;&gt;- FlightTime: int;&lt;br style=&quot;border-color: var(--border-color);&quot;&gt;&lt;/div&gt;&lt;div style=&quot;border-color: var(--border-color);&quot;&gt;- Birthday: string;&lt;br style=&quot;border-color: var(--border-color);&quot;&gt;&lt;/div&gt;&lt;div style=&quot;border-color: var(--border-color);&quot;&gt;- NumberOfMeals: int;&lt;/div&gt;&lt;div style=&quot;border-color: var(--border-color);&quot;&gt;- NumberOfSleepCycles: int;&lt;/div&gt;&lt;div style=&quot;border-color: var(--border-color);&quot;&gt;- Gender: boolean;&lt;/div&gt;&lt;div style=&quot;border-color: var(--border-color);&quot;&gt;- WinterHibernation: int;&lt;/div&gt;&lt;div style=&quot;border-color: var(--border-color);&quot;&gt;- Nickname: string;&lt;/div&gt;&lt;div style=&quot;border-color: var(--border-color);&quot;&gt;- Size: double;&lt;/div&gt;&lt;div style=&quot;border-color: var(--border-color);&quot;&gt;- Weight: double;&lt;/div&gt;&lt;div style=&quot;border-color: var(--border-color);&quot;&gt;- Type: string;&lt;/div&gt;&lt;div style=&quot;border-color: var(--border-color);&quot;&gt;- FoodWeight: double;&lt;/div&gt;&lt;/div&gt;" style="text;strokeColor=none;fillColor=none;align=left;verticalAlign=top;spacingLeft=4;spacingRight=4;overflow=hidden;rotatable=0;points=[[0,0.5],[1,0.5]];portConstraint=eastwest;whiteSpace=wrap;html=1;" parent="udrUvMwMZRMJsxwZoKq2-1" vertex="1">
          <mxGeometry y="26" width="250" height="204" as="geometry" />
        </mxCell>
        <mxCell id="udrUvMwMZRMJsxwZoKq2-3" value="" style="line;strokeWidth=1;fillColor=none;align=left;verticalAlign=middle;spacingTop=-1;spacingLeft=3;spacingRight=3;rotatable=0;labelPosition=right;points=[];portConstraint=eastwest;strokeColor=inherit;" parent="udrUvMwMZRMJsxwZoKq2-1" vertex="1">
          <mxGeometry y="230" width="250" height="8" as="geometry" />
        </mxCell>
        <mxCell id="udrUvMwMZRMJsxwZoKq2-4" value="&lt;div style=&quot;border-color: var(--border-color);&quot;&gt;&lt;div style=&quot;border-color: var(--border-color);&quot;&gt;+ setIdBat::(int) void;&lt;br style=&quot;border-color: var(--border-color);&quot;&gt;&lt;/div&gt;&lt;div style=&quot;border-color: var(--border-color);&quot;&gt;+ setName:(string) void;&lt;/div&gt;&lt;div style=&quot;border-color: var(--border-color);&quot;&gt;+ setFlightTime:(int) void;&lt;/div&gt;&lt;div style=&quot;border-color: var(--border-color);&quot;&gt;+ setBirthday:(string) void;&lt;/div&gt;&lt;div style=&quot;border-color: var(--border-color);&quot;&gt;+ setNumberOfMeals:(int) void;&lt;/div&gt;&lt;div style=&quot;border-color: var(--border-color);&quot;&gt;+ setNumberOfSleepCycles:(int) void;&lt;/div&gt;&lt;div style=&quot;border-color: var(--border-color);&quot;&gt;+ setGender:(boolean) void;&lt;/div&gt;&lt;div style=&quot;border-color: var(--border-color);&quot;&gt;+ setWinterHibernation:(int) void;&lt;/div&gt;&lt;div style=&quot;border-color: var(--border-color);&quot;&gt;+ setNickname:(string) void;&lt;/div&gt;&lt;div style=&quot;border-color: var(--border-color);&quot;&gt;+ setSize:(double) void;&lt;/div&gt;&lt;div style=&quot;border-color: var(--border-color);&quot;&gt;+ setWeight:(double) void;&lt;/div&gt;&lt;div style=&quot;border-color: var(--border-color);&quot;&gt;+ setType:(string) void;&lt;/div&gt;&lt;div style=&quot;border-color: var(--border-color);&quot;&gt;+ setFoodWeight(double): void;&lt;br style=&quot;border-color: var(--border-color);&quot;&gt;&lt;/div&gt;&lt;div style=&quot;border-color: var(--border-color);&quot;&gt;+ getIdBat:() int;&lt;/div&gt;&lt;div style=&quot;border-color: var(--border-color);&quot;&gt;+ getName() string;&lt;/div&gt;&lt;div style=&quot;border-color: var(--border-color);&quot;&gt;+ getFlightTime() int;&lt;/div&gt;&lt;div style=&quot;border-color: var(--border-color);&quot;&gt;+ getBirthday() string;&lt;/div&gt;&lt;div style=&quot;border-color: var(--border-color);&quot;&gt;+ getNumberOfMeals() int;&lt;/div&gt;&lt;div style=&quot;border-color: var(--border-color);&quot;&gt;+ getNimberOfSleepCycles() int;&lt;/div&gt;&lt;div style=&quot;border-color: var(--border-color);&quot;&gt;+ getGender() boolean;&lt;/div&gt;&lt;div style=&quot;border-color: var(--border-color);&quot;&gt;+ getWinterHibernation() int;&lt;/div&gt;&lt;div style=&quot;border-color: var(--border-color);&quot;&gt;+ getNickname() string;&lt;/div&gt;&lt;div style=&quot;border-color: var(--border-color);&quot;&gt;+ getSize() double;&lt;/div&gt;&lt;div style=&quot;border-color: var(--border-color);&quot;&gt;+ getWeight() double;&lt;/div&gt;&lt;div style=&quot;border-color: var(--border-color);&quot;&gt;+ getType() string;&lt;/div&gt;&lt;div style=&quot;border-color: var(--border-color);&quot;&gt;+ getFoodWeight(): double;&lt;/div&gt;&lt;/div&gt;" style="text;strokeColor=none;fillColor=none;align=left;verticalAlign=top;spacingLeft=4;spacingRight=4;overflow=hidden;rotatable=0;points=[[0,0.5],[1,0.5]];portConstraint=eastwest;whiteSpace=wrap;html=1;" parent="udrUvMwMZRMJsxwZoKq2-1" vertex="1">
          <mxGeometry y="238" width="250" height="382" as="geometry" />
        </mxCell>
        <mxCell id="udrUvMwMZRMJsxwZoKq2-17" value="InsectBat" style="swimlane;fontStyle=1;align=center;verticalAlign=top;childLayout=stackLayout;horizontal=1;startSize=26;horizontalStack=0;resizeParent=1;resizeParentMax=0;resizeLast=0;collapsible=1;marginBottom=0;whiteSpace=wrap;html=1;" parent="1" vertex="1">
          <mxGeometry x="130" y="240" width="250" height="140" as="geometry" />
        </mxCell>
        <mxCell id="udrUvMwMZRMJsxwZoKq2-18" value="&lt;div style=&quot;border-color: var(--border-color);&quot;&gt;-TypeInsectFood: string;&lt;br style=&quot;border-color: var(--border-color);&quot;&gt;&lt;div style=&quot;border-color: var(--border-color);&quot;&gt;-AmountOfInsect: int;&lt;/div&gt;&lt;/div&gt;" style="text;strokeColor=none;fillColor=none;align=left;verticalAlign=top;spacingLeft=4;spacingRight=4;overflow=hidden;rotatable=0;points=[[0,0.5],[1,0.5]];portConstraint=eastwest;whiteSpace=wrap;html=1;" parent="udrUvMwMZRMJsxwZoKq2-17" vertex="1">
          <mxGeometry y="26" width="250" height="34" as="geometry" />
        </mxCell>
        <mxCell id="udrUvMwMZRMJsxwZoKq2-19" value="" style="line;strokeWidth=1;fillColor=none;align=left;verticalAlign=middle;spacingTop=-1;spacingLeft=3;spacingRight=3;rotatable=0;labelPosition=right;points=[];portConstraint=eastwest;strokeColor=inherit;" parent="udrUvMwMZRMJsxwZoKq2-17" vertex="1">
          <mxGeometry y="60" width="250" height="8" as="geometry" />
        </mxCell>
        <mxCell id="udrUvMwMZRMJsxwZoKq2-20" value="&lt;div style=&quot;border-color: var(--border-color);&quot;&gt;&lt;div style=&quot;border-color: var(--border-color);&quot;&gt;+ setTypeInsect&lt;span style=&quot;background-color: initial;&quot;&gt;Food:(string) string;&lt;/span&gt;&lt;/div&gt;&lt;div style=&quot;border-color: var(--border-color);&quot;&gt;+ setAmountOfInsect:(string) int;&lt;/div&gt;&lt;div style=&quot;border-color: var(--border-color);&quot;&gt;+ getTypeInsect&lt;span style=&quot;background-color: initial;&quot;&gt;Food:() void;&lt;/span&gt;&lt;/div&gt;&lt;div style=&quot;border-color: var(--border-color);&quot;&gt;+ getAmountOfInsect:() void;&lt;/div&gt;&lt;/div&gt;" style="text;strokeColor=none;fillColor=none;align=left;verticalAlign=top;spacingLeft=4;spacingRight=4;overflow=hidden;rotatable=0;points=[[0,0.5],[1,0.5]];portConstraint=eastwest;whiteSpace=wrap;html=1;" parent="udrUvMwMZRMJsxwZoKq2-17" vertex="1">
          <mxGeometry y="68" width="250" height="72" as="geometry" />
        </mxCell>
        <mxCell id="udrUvMwMZRMJsxwZoKq2-30" value="FruitBat" style="swimlane;fontStyle=1;align=center;verticalAlign=top;childLayout=stackLayout;horizontal=1;startSize=26;horizontalStack=0;resizeParent=1;resizeParentMax=0;resizeLast=0;collapsible=1;marginBottom=0;whiteSpace=wrap;html=1;" parent="1" vertex="1">
          <mxGeometry x="130" y="480" width="250" height="140" as="geometry" />
        </mxCell>
        <mxCell id="udrUvMwMZRMJsxwZoKq2-31" value="&lt;div style=&quot;border-color: var(--border-color);&quot;&gt;-TypeFruitFood: string;&lt;br style=&quot;border-color: var(--border-color);&quot;&gt;&lt;div style=&quot;border-color: var(--border-color);&quot;&gt;-AmountOfFruit&lt;span style=&quot;background-color: initial;&quot;&gt;: int;&lt;/span&gt;&lt;/div&gt;&lt;/div&gt;" style="text;strokeColor=none;fillColor=none;align=left;verticalAlign=top;spacingLeft=4;spacingRight=4;overflow=hidden;rotatable=0;points=[[0,0.5],[1,0.5]];portConstraint=eastwest;whiteSpace=wrap;html=1;" parent="udrUvMwMZRMJsxwZoKq2-30" vertex="1">
          <mxGeometry y="26" width="250" height="34" as="geometry" />
        </mxCell>
        <mxCell id="udrUvMwMZRMJsxwZoKq2-32" value="" style="line;strokeWidth=1;fillColor=none;align=left;verticalAlign=middle;spacingTop=-1;spacingLeft=3;spacingRight=3;rotatable=0;labelPosition=right;points=[];portConstraint=eastwest;strokeColor=inherit;" parent="udrUvMwMZRMJsxwZoKq2-30" vertex="1">
          <mxGeometry y="60" width="250" height="8" as="geometry" />
        </mxCell>
        <mxCell id="udrUvMwMZRMJsxwZoKq2-33" value="&lt;div style=&quot;border-color: var(--border-color);&quot;&gt;&lt;div class=&quot;custom-cursor-default-hover&quot; style=&quot;border-color: var(--border-color);&quot;&gt;+ setTypeFruit&lt;span style=&quot;background-color: initial;&quot;&gt;Food:(string) string;&lt;/span&gt;&lt;/div&gt;&lt;div style=&quot;border-color: var(--border-color);&quot;&gt;+ setAmountOfFruit:(string) int;&lt;/div&gt;&lt;div style=&quot;border-color: var(--border-color);&quot;&gt;+ getTypeFruit&lt;span style=&quot;background-color: initial;&quot;&gt;Food:() void;&lt;/span&gt;&lt;/div&gt;&lt;div style=&quot;border-color: var(--border-color);&quot;&gt;+ getAmountOfFruit:() void;&lt;/div&gt;&lt;/div&gt;" style="text;strokeColor=none;fillColor=none;align=left;verticalAlign=top;spacingLeft=4;spacingRight=4;overflow=hidden;rotatable=0;points=[[0,0.5],[1,0.5]];portConstraint=eastwest;whiteSpace=wrap;html=1;" parent="udrUvMwMZRMJsxwZoKq2-30" vertex="1">
          <mxGeometry y="68" width="250" height="72" as="geometry" />
        </mxCell>
        <mxCell id="udrUvMwMZRMJsxwZoKq2-34" value="BloodBat" style="swimlane;fontStyle=1;align=center;verticalAlign=top;childLayout=stackLayout;horizontal=1;startSize=26;horizontalStack=0;resizeParent=1;resizeParentMax=0;resizeLast=0;collapsible=1;marginBottom=0;whiteSpace=wrap;html=1;" parent="1" vertex="1">
          <mxGeometry x="130" y="720" width="250" height="140" as="geometry" />
        </mxCell>
        <mxCell id="udrUvMwMZRMJsxwZoKq2-35" value="&lt;div class=&quot;custom-cursor-default-hover&quot; style=&quot;border-color: var(--border-color);&quot;&gt;-TypeBloodFood: string;&lt;br style=&quot;border-color: var(--border-color);&quot;&gt;&lt;div style=&quot;border-color: var(--border-color);&quot;&gt;-AmountOfBlood: double;&lt;/div&gt;&lt;/div&gt;BloodBloodBloodBlood" style="text;strokeColor=none;fillColor=none;align=left;verticalAlign=top;spacingLeft=4;spacingRight=4;overflow=hidden;rotatable=0;points=[[0,0.5],[1,0.5]];portConstraint=eastwest;whiteSpace=wrap;html=1;" parent="udrUvMwMZRMJsxwZoKq2-34" vertex="1">
          <mxGeometry y="26" width="250" height="34" as="geometry" />
        </mxCell>
        <mxCell id="udrUvMwMZRMJsxwZoKq2-36" value="" style="line;strokeWidth=1;fillColor=none;align=left;verticalAlign=middle;spacingTop=-1;spacingLeft=3;spacingRight=3;rotatable=0;labelPosition=right;points=[];portConstraint=eastwest;strokeColor=inherit;" parent="udrUvMwMZRMJsxwZoKq2-34" vertex="1">
          <mxGeometry y="60" width="250" height="8" as="geometry" />
        </mxCell>
        <mxCell id="udrUvMwMZRMJsxwZoKq2-37" value="&lt;div style=&quot;border-color: var(--border-color);&quot;&gt;&lt;div class=&quot;custom-cursor-default-hover&quot; style=&quot;border-color: var(--border-color);&quot;&gt;+ setTypeBloodFood:(string) string;&lt;br style=&quot;border-color: var(--border-color);&quot;&gt;&lt;/div&gt;&lt;div class=&quot;custom-cursor-default-hover&quot; style=&quot;border-color: var(--border-color);&quot;&gt;+ setAmountOfBlood:(string) double;&lt;/div&gt;&lt;div style=&quot;border-color: var(--border-color);&quot;&gt;+ getTypeBloodFood:() void;&lt;/div&gt;&lt;div style=&quot;border-color: var(--border-color);&quot;&gt;+ getAmountOfFoodBlood:() void;&lt;/div&gt;&lt;/div&gt;" style="text;strokeColor=none;fillColor=none;align=left;verticalAlign=top;spacingLeft=4;spacingRight=4;overflow=hidden;rotatable=0;points=[[0,0.5],[1,0.5]];portConstraint=eastwest;whiteSpace=wrap;html=1;" parent="udrUvMwMZRMJsxwZoKq2-34" vertex="1">
          <mxGeometry y="68" width="250" height="72" as="geometry" />
        </mxCell>
        <mxCell id="udrUvMwMZRMJsxwZoKq2-38" value="" style="endArrow=block;html=1;rounded=0;exitX=1;exitY=0.028;exitDx=0;exitDy=0;entryX=0.001;entryY=0.219;entryDx=0;entryDy=0;exitPerimeter=0;entryPerimeter=0;endFill=0;" parent="1" source="udrUvMwMZRMJsxwZoKq2-20" target="udrUvMwMZRMJsxwZoKq2-2" edge="1">
          <mxGeometry width="50" height="50" relative="1" as="geometry">
            <mxPoint x="400" y="340" as="sourcePoint" />
            <mxPoint x="450" y="290" as="targetPoint" />
          </mxGeometry>
        </mxCell>
        <mxCell id="udrUvMwMZRMJsxwZoKq2-39" value="" style="endArrow=block;html=1;rounded=0;exitX=1;exitY=0.024;exitDx=0;exitDy=0;entryX=-0.002;entryY=0.181;entryDx=0;entryDy=0;exitPerimeter=0;entryPerimeter=0;endFill=0;" parent="1" source="udrUvMwMZRMJsxwZoKq2-33" target="udrUvMwMZRMJsxwZoKq2-4" edge="1">
          <mxGeometry width="50" height="50" relative="1" as="geometry">
            <mxPoint x="380" y="560" as="sourcePoint" />
            <mxPoint x="450" y="561" as="targetPoint" />
          </mxGeometry>
        </mxCell>
        <mxCell id="udrUvMwMZRMJsxwZoKq2-43" value="" style="endArrow=block;html=1;rounded=0;exitX=1;exitY=0.5;exitDx=0;exitDy=0;entryX=0;entryY=0.747;entryDx=0;entryDy=0;entryPerimeter=0;endFill=0;" parent="1" source="udrUvMwMZRMJsxwZoKq2-35" target="udrUvMwMZRMJsxwZoKq2-4" edge="1">
          <mxGeometry width="50" height="50" relative="1" as="geometry">
            <mxPoint x="380" y="773" as="sourcePoint" />
            <mxPoint x="450" y="770" as="targetPoint" />
          </mxGeometry>
        </mxCell>
      </root>
    </mxGraphModel>
  </diagram>
</mxfile>
